<svg version="1.0" xmlns="http://www.w3.org/2000/svg" viewBox="0 0 410.000000 370.000000" preserveAspectRatio="xMidYMid meet">
<g transform="translate(0.000000,370.000000) scale(0.100000,-0.100000)" fill="#4c44e4" stroke="none">
<path d="M1186 3547 c-30 -29 -70 -54 -105 -67 -79 -28 -85 -33 -95 -71 -30
-116 -41 -144 -67 -173 -27 -32 -28 -36 -20 -82 6 -27 17 -69 25 -93 9 -24 16
-50 16 -57 0 -7 11 -37 24 -66 13 -29 26 -62 28 -73 2 -10 14 -25 28 -31 14
-7 38 -18 53 -25 15 -7 46 -30 69 -51 23 -21 43 -38 45 -38 9 0 89 -66 103
-85 8 -11 42 -49 76 -85 39 -43 67 -83 78 -115 28 -77 38 -94 58 -101 28 -8
57 -74 68 -155 6 -40 23 -100 38 -133 25 -57 27 -69 27 -206 0 -130 -2 -149
-21 -180 -22 -36 -38 -95 -49 -185 -9 -62 -27 -98 -64 -124 -16 -11 -32 -33
-36 -48 -14 -57 -57 -127 -103 -167 -25 -23 -77 -69 -115 -104 -38 -34 -75
-62 -82 -62 -8 0 -36 -22 -63 -50 -27 -27 -56 -50 -64 -50 -22 0 -52 -37 -55
-68 -2 -15 -8 -36 -13 -47 -5 -11 -16 -44 -25 -74 -8 -30 -21 -58 -27 -62 -17
-11 -12 -125 7 -164 14 -29 48 -143 59 -196 4 -21 19 -31 71 -54 36 -15 79
-40 95 -55 41 -38 80 -50 164 -50 102 1 151 15 193 55 20 19 53 40 74 45 37
10 79 50 79 75 0 7 16 27 35 44 44 38 55 80 65 241 10 169 24 239 64 318 19
37 37 83 41 102 12 55 50 127 83 155 17 14 38 46 48 71 11 30 30 54 53 70 20
13 47 41 61 62 15 21 45 46 71 59 25 11 53 33 62 47 10 14 34 34 55 45 53 27
159 152 169 199 4 20 8 100 8 178 0 156 -11 192 -66 230 -16 10 -29 24 -29 30
0 5 -19 23 -42 40 -23 16 -60 47 -83 70 -22 23 -59 51 -82 63 -28 14 -49 34
-62 59 -11 22 -35 46 -55 57 -25 14 -43 34 -58 66 -11 26 -39 63 -62 82 -42
35 -48 48 -72 174 -2 13 -18 38 -35 58 -45 51 -58 107 -69 314 -6 102 -13 196
-16 209 -2 13 -24 43 -47 66 -23 24 -50 55 -60 70 -10 14 -35 33 -55 42 -20 8
-49 28 -64 43 -33 34 -52 39 -183 47 l-100 7 -49 -46z"/>
<path d="M2695 3563 c-11 -3 -31 -16 -45 -28 -14 -13 -46 -33 -71 -44 -49 -22
-73 -44 -83 -78 -4 -12 -24 -36 -45 -53 -31 -24 -40 -39 -45 -73 -15 -110 -17
-178 -8 -251 9 -69 15 -83 44 -115 19 -20 47 -55 63 -79 16 -24 41 -50 56 -58
15 -8 40 -25 54 -38 38 -35 119 -50 240 -43 124 7 173 20 185 51 9 25 52 60
93 75 18 7 29 23 40 58 27 85 61 168 75 182 16 17 10 59 -20 141 -11 30 -23
71 -27 90 -4 19 -18 53 -29 75 -12 22 -22 46 -22 53 0 7 -8 15 -17 19 -74 25
-163 70 -188 94 -30 28 -34 29 -130 28 -55 -1 -109 -3 -120 -6z"/>
<path d="M487 2275 c-47 -10 -65 -20 -96 -54 -21 -22 -46 -41 -57 -41 -29 -1
-49 -20 -77 -76 -14 -29 -37 -60 -51 -70 -17 -13 -30 -38 -41 -79 -19 -74 -19
-121 0 -210 12 -56 21 -74 45 -93 17 -13 41 -47 55 -75 20 -44 32 -55 70 -70
24 -11 56 -32 70 -49 39 -46 112 -62 230 -48 52 5 96 10 99 10 3 0 20 13 39
30 19 16 57 41 86 55 42 22 56 35 71 70 10 23 34 55 53 69 30 23 36 34 46 99
19 112 -3 265 -42 292 -12 9 -36 39 -53 68 -23 39 -42 57 -77 74 -25 12 -56
36 -68 53 -14 19 -38 34 -62 41 -58 16 -174 17 -240 4z"/>
<path d="M3438 2276 c-30 -9 -57 -25 -74 -45 -14 -17 -48 -41 -74 -52 -44 -19
-70 -49 -70 -83 0 -7 -20 -31 -44 -54 -55 -51 -71 -109 -61 -216 10 -111 20
-143 54 -175 17 -16 40 -49 50 -74 16 -38 28 -49 68 -67 26 -11 62 -36 80 -55
42 -45 97 -59 193 -51 121 11 159 23 198 62 19 19 48 38 63 41 37 7 53 28 69
85 8 31 25 58 50 82 49 45 64 90 57 174 -9 114 -23 160 -57 189 -17 14 -41 48
-52 74 -17 39 -29 51 -62 64 -23 9 -55 32 -72 51 -17 18 -44 38 -60 45 -46 17
-202 21 -256 5z"/>
<path d="M2682 980 c-18 -4 -35 -9 -37 -11 -2 -2 -25 -22 -51 -44 -26 -22 -79
-72 -119 -112 -67 -66 -72 -75 -78 -125 -10 -79 -8 -163 7 -250 11 -70 17 -82
52 -116 21 -21 48 -54 59 -72 14 -24 31 -38 58 -45 21 -6 58 -27 83 -47 35
-28 58 -38 100 -44 69 -8 164 3 170 21 3 7 20 20 37 28 18 7 66 29 107 48 l75
34 23 71 c13 39 34 95 48 124 33 71 30 113 -19 269 -40 126 -44 136 -77 153
-19 11 -52 37 -73 58 -30 32 -50 43 -103 55 -68 16 -206 18 -262 5z"/>
</g>
</svg>
